# xmcd
#
# Track frame offsets:
#	300
#	27178
#	44834
#	73569
#	104454
#	121966
#	159696
#	174277
#	203969
#	240911
#
# Disc length: 3480 seconds
#
# Revision: 0
# Processed by: cddbd v1.5.2PL0 Copyright (c) Steve Scherf et al.
# Submitted via: audiograbber 1.83.01
#
DISCID=860d940a
DTITLE=Jessy Martens and Band - Live At BluesBaltica
DYEAR=2011
DGENRE=Other Blues
TTITLE0=Good Morning Blues
TTITLE1=Never Make You Move Too Soon
TTITLE2=Touch My Blues Away
TTITLE3=Let The Juke Joint Jump
TTITLE4=I Don`t Need No Doctor
TTITLE5=Love Me Like A Man
TTITLE6=That`s What Love Will Make You Do
TTITLE7=Trying To Make A Living
TTITLE8=Summertime
TTITLE9=L.A. Song
EXTD=Aufgenommen beim 22. Bluesfest Eutin am 22.05.2011 100% live! No Overdubs!
EXTT0=
EXTT1=
EXTT2=
EXTT3=
EXTT4=
EXTT5=
EXTT6=
EXTT7=
EXTT8=
EXTT9=
PLAYORDER=
